# xmcd CD database file
#
# Track frame offsets:
#	150
#	15359
#	32805
#	53409
#	73215
#	85486
#	102245
#	117769
#	136686
#	156682
#	175106
#	194142
#	212925
#	231564
#	248381
#	264273
#	279024
#	299028
#	317180
#	330203
#
# Disc length: 4615 seconds
#
# Revision: 0
# Processed by: cddbd v1.5.2PL0 Copyright (c) Steve Scherf et al.
# Submitted via: CDex 1.51
#
DISCID=21120514
DTITLE=The Real Book Play-Along - Volume II
DYEAR=2010
DGENRE=Jazz
TTITLE0=Watch What Happens
TTITLE1=The Way You Look Tonight
TTITLE2=A Weaver Of Dreams
TTITLE3=Webb City
TTITLE4=What'll I Do?
TTITLE5=What's New?
TTITLE6=When Lights Are Low
TTITLE7=Whisper Not
TTITLE8=Who Can I Turn To (When Nobody Needs Me)
TTITLE9=Why Do I Love You?
TTITLE10=Willow Weep For Me
TTITLE11=With A Song In My Heart
TTITLE12=Without A Song
TTITLE13=A Wonderful Day Like Today
TTITLE14=Work Song
TTITLE15=Yardbird Suite
TTITLE16=You Are Beautiful
TTITLE17=You Can Depend On Me
TTITLE18=You'd Be So Nice To Come Home To
TTITLE19=You're Nobody 'til Somebody Loves You
EXTD=YEAR: 2010
EXTT0=
EXTT1=
EXTT2=
EXTT3=
EXTT4=
EXTT5=
EXTT6=
EXTT7=
EXTT8=
EXTT9=
EXTT10=
EXTT11=
EXTT12=
EXTT13=
EXTT14=
EXTT15=
EXTT16=
EXTT17=
EXTT18=
EXTT19=
PLAYORDER=
